<svg width="24" height="25" viewBox="0 0 24 25" fill="none" xmlns="http://www.w3.org/2000/svg">
<g clip-path="url(#clip0_91_35)">
<path d="M3.27637 19.8643L6.23043 0.961634C6.24812 0.848667 6.30086 0.744113 6.38119 0.66274C6.46152 0.581367 6.56539 0.527287 6.67812 0.50814C6.79085 0.488992 6.90674 0.505744 7.00944 0.55603C7.11213 0.606316 7.19643 0.687594 7.25043 0.788384L10.3056 6.48651L11.5232 4.16788C11.5695 4.07993 11.6389 4.0063 11.724 3.95494C11.8091 3.90357 11.9066 3.87642 12.006 3.87642C12.1054 3.87642 12.2029 3.90357 12.288 3.95494C12.3731 4.0063 12.4425 4.07993 12.4888 4.16788L20.7332 19.8643H3.27637Z" fill="#FFA000"/>
<path d="M13.4818 12.5009L10.3041 6.48368L3.27637 19.8642L13.4818 12.5009Z" fill="#F57C00"/>
<path d="M20.7332 19.8643L18.4706 5.86326C18.4538 5.76459 18.4103 5.67242 18.3447 5.59683C18.2791 5.52124 18.1939 5.46513 18.0986 5.43463C18.0033 5.40418 17.9014 5.40056 17.8042 5.42417C17.707 5.44779 17.6181 5.49772 17.5474 5.56851L3.27637 19.8641L11.1729 24.2924C11.4168 24.4286 11.6914 24.5001 11.9707 24.5001C12.25 24.5001 12.5247 24.4286 12.7686 24.2924L20.7332 19.8643Z" fill="#FFCA28"/>
<path d="M18.4704 5.86325C18.4536 5.76458 18.4101 5.67241 18.3445 5.59682C18.2789 5.52124 18.1937 5.46513 18.0984 5.43462C18.0031 5.40414 17.9013 5.4005 17.804 5.42408C17.7068 5.44766 17.6179 5.49756 17.5472 5.56831L14.7146 8.40837L12.4873 4.16787C12.441 4.07992 12.3715 4.00629 12.2865 3.95493C12.2014 3.90356 12.1039 3.87641 12.0045 3.87641C11.9051 3.87641 11.8076 3.90356 11.7225 3.95493C11.6374 4.00629 11.568 4.07992 11.5217 4.16787L10.304 6.48631L7.24891 0.788373C7.19485 0.687444 7.1104 0.606082 7.00753 0.555808C6.90466 0.505533 6.78858 0.488895 6.67573 0.508248C6.56292 0.527516 6.45904 0.581803 6.37881 0.663412C6.29858 0.745022 6.24607 0.849815 6.22873 0.962936L3.27616 19.8642H3.2666L3.27598 19.8751L3.35379 19.9134L17.543 5.70762C17.6138 5.63655 17.7028 5.58635 17.8002 5.56255C17.8976 5.53875 17.9997 5.54226 18.0953 5.5727C18.1909 5.60314 18.2762 5.65933 18.3419 5.7351C18.4076 5.81086 18.4512 5.90328 18.4678 6.00219L20.7112 19.8777L20.733 19.8641L18.4704 5.86325ZM3.30204 19.8384L6.23004 1.09662C6.24744 0.983475 6.29998 0.878665 6.38024 0.797031C6.46049 0.715396 6.56439 0.661072 6.67723 0.641748C6.7901 0.62244 6.90618 0.63912 7.00905 0.689426C7.11191 0.739732 7.19635 0.821117 7.25041 0.922061L10.3052 6.62018L11.523 4.30156C11.5693 4.21361 11.6387 4.13998 11.7238 4.08861C11.8089 4.03725 11.9064 4.0101 12.0058 4.0101C12.1052 4.0101 12.2027 4.03725 12.2878 4.08861C12.3729 4.13998 12.4423 4.21361 12.4886 4.30156L14.6707 8.45187L3.30166 19.8384H3.30204Z" fill="white" fill-opacity="0.2"/>
<path opacity="0.2" d="M12.7689 24.1588C12.5251 24.2949 12.2504 24.3664 11.9711 24.3664C11.6918 24.3664 11.4172 24.2949 11.1733 24.1588L3.29549 19.7431L3.27637 19.8644L11.1729 24.2913C11.4168 24.4275 11.6914 24.499 11.9707 24.499C12.25 24.499 12.5247 24.4275 12.7686 24.2913L20.7336 19.8644L20.7129 19.7388L12.7686 24.1591L12.7689 24.1588Z" fill="#A52714"/>
</g>
<defs>
<clipPath id="clip0_91_35">
<rect width="24" height="24" fill="white" transform="translate(0 0.5)"/>
</clipPath>
</defs>
</svg>
