<svg width="24" height="25" viewBox="0 0 24 25" fill="none" xmlns="http://www.w3.org/2000/svg">
<path d="M12 14.3555C13.0355 14.3555 13.875 13.516 13.875 12.4805C13.875 11.445 13.0355 10.6055 12 10.6055C10.9645 10.6055 10.125 11.445 10.125 12.4805C10.125 13.516 10.9645 14.3555 12 14.3555Z" fill="#00D8FF"/>
<path d="M12 16.7795C9.74635 16.834 7.49835 16.5302 5.34 15.8795C4.34297 15.5635 3.41305 15.0656 2.59725 14.411C2.28595 14.1874 2.0267 13.8991 1.83731 13.5659C1.64791 13.2327 1.53284 12.8624 1.5 12.4805C1.5 11.2408 2.862 10.0258 5.1435 9.23077C7.35955 8.52633 9.67494 8.18492 12 8.21977C14.294 8.18772 16.5784 8.52295 18.7665 9.21277C19.7267 9.51889 20.6251 9.99271 21.42 10.6123C21.726 10.8254 21.9813 11.1033 22.168 11.4262C22.3546 11.749 22.468 12.109 22.5 12.4805C22.5 13.769 20.9775 15.0748 18.525 15.8863C16.4084 16.5158 14.2079 16.817 12 16.7795ZM12 9.11677C9.77559 9.08703 7.56062 9.4116 5.43825 10.0783C3.33825 10.811 2.397 11.813 2.397 12.4783C2.397 13.1743 3.40875 14.2685 5.63025 15.0283C7.69505 15.6477 9.84496 15.936 12 15.8825C14.1123 15.9203 16.2179 15.6345 18.2438 15.035C20.55 14.2708 21.6 13.175 21.6 12.4805C21.5622 12.2422 21.4753 12.0143 21.3449 11.8112C21.2145 11.6082 21.0435 11.4344 20.8425 11.3008C20.1313 10.7511 19.3288 10.3312 18.4718 10.0603C16.3785 9.40308 14.1937 9.08457 12 9.11677Z" fill="#00D8FF"/>
<path d="M7.73971 21.8322C7.38983 21.8403 7.04409 21.7554 6.73771 21.5862C5.66371 20.9667 5.29171 19.1802 5.74246 16.8065C6.23944 14.5348 7.10056 12.3585 8.29246 10.3617C9.41051 8.35856 10.8418 6.54717 12.5322 4.99623C13.2771 4.31726 14.1364 3.77564 15.0702 3.39648C15.408 3.23818 15.7764 3.15613 16.1495 3.15613C16.5225 3.15613 16.8909 3.23818 17.2287 3.39648C18.3455 4.03998 18.7152 6.01098 18.194 8.54073C17.6816 10.6892 16.8429 12.7463 15.707 14.6405C14.6283 16.62 13.242 18.4156 11.6 19.9602C10.828 20.6658 9.93221 21.2224 8.95771 21.602C8.56757 21.7468 8.15578 21.8246 7.73971 21.8322ZM9.06946 10.8072C7.93253 12.7192 7.1072 14.8 6.62446 16.9715C6.20971 19.1577 6.60796 20.4725 7.18696 20.807C7.78696 21.1542 9.24346 20.825 11.012 19.28C12.5795 17.8002 13.9026 16.0814 14.9322 14.1875C16.0204 12.3766 16.825 10.4098 17.318 8.35548C17.8085 5.97423 17.3847 4.51623 16.7832 4.16973C16.5578 4.08335 16.3169 4.04468 16.0757 4.05617C15.8346 4.06766 15.5984 4.12906 15.3822 4.23648C14.551 4.57949 13.7868 5.06645 13.1247 5.67498C11.5097 7.16057 10.1425 8.89468 9.07471 10.8117L9.06946 10.8072Z" fill="#00D8FF"/>
<path d="M16.258 21.842C15.2418 21.842 13.951 21.227 12.607 20.0712C10.8871 18.5062 9.43151 16.6733 8.29678 14.6435C7.11983 12.6743 6.26553 10.5294 5.76628 8.29023C5.54976 7.3051 5.50964 6.28938 5.64778 5.29023C5.67971 4.91959 5.79258 4.56046 5.9784 4.23818C6.16423 3.9159 6.4185 3.63831 6.72328 3.42498C7.83853 2.77923 9.73078 3.44298 11.662 5.15748C13.2675 6.67412 14.6308 8.42801 15.7045 10.358C16.8808 12.2812 17.744 14.3791 18.262 16.5732C18.4879 17.5945 18.5227 18.6488 18.3648 19.6827C18.3272 20.064 18.2076 20.4327 18.0142 20.7635C17.8208 21.0942 17.5582 21.3792 17.2443 21.599C16.9429 21.766 16.6025 21.8499 16.258 21.842ZM9.07303 14.192C10.1616 16.1318 11.552 17.886 13.192 19.3887C14.8788 20.84 16.2168 21.152 16.792 20.8137C17.392 20.465 17.8345 19.0415 17.3785 16.7382C16.8789 14.6434 16.0509 12.6409 14.9253 10.805C13.9007 8.95783 12.5993 7.27838 11.0665 5.82498C9.24853 4.21098 7.77403 3.85023 7.17328 4.19823C6.98604 4.3504 6.83238 4.53973 6.72201 4.75427C6.61163 4.96882 6.54695 5.20392 6.53203 5.44473C6.41278 6.3358 6.45163 7.24091 6.64678 8.11848C7.127 10.2598 7.94633 12.3107 9.07378 14.1935L9.07303 14.192Z" fill="#00D8FF"/>
</svg>
