<svg width="24" height="25" viewBox="0 0 24 25" fill="none" xmlns="http://www.w3.org/2000/svg">
<g clip-path="url(#clip0_91_27)">
<path d="M12.001 5.30037C8.80091 5.30037 6.8016 6.89974 6.00098 10.0998C7.2006 8.50024 8.60104 7.90043 10.2006 8.30037C11.1139 8.52799 11.7666 9.19024 12.4894 9.92412C13.6658 11.1179 15.0274 12.5 18.001 12.5C21.2009 12.5 23.2004 10.9004 24.001 7.69962C22.8012 9.30012 21.4009 9.89993 19.8012 9.49999C18.888 9.27218 18.2361 8.61012 17.5124 7.87624C16.3367 6.68243 14.9755 5.30037 12.001 5.30037ZM6.00098 12.5C2.8011 12.5 0.801602 14.0996 0.000976562 17.3004C1.2006 15.6999 2.60085 15.1001 4.2006 15.5C5.11391 15.7278 5.7666 16.3899 6.48941 17.1237C7.66579 18.3176 9.02741 19.6996 12.001 19.6996C15.2009 19.6996 17.2004 18.1002 18.001 14.9002C16.8012 16.4997 15.4009 17.0996 13.8012 16.6996C12.888 16.472 12.2361 15.8097 11.5124 15.0759C10.3367 13.8821 8.97548 12.5 6.00098 12.5Z" fill="#38BDF8"/>
</g>
<defs>
<clipPath id="clip0_91_27">
<rect width="24" height="24" fill="white" transform="translate(0 0.5)"/>
</clipPath>
</defs>
</svg>
