<svg xmlns="http://www.w3.org/2000/svg"  viewBox="0 0 32 32" width="32px" height="32px"><path d="M 16 3 C 12.953 3 10.384453 4.9181719 9.6894531 7.5761719 C 8.7224531 7.6731719 7.7579219 7.7857344 6.7949219 7.9277344 C 4.8099219 8.2197344 3.2303906 9.6313438 2.7753906 11.527344 C 1.7443906 15.822344 1.7443906 20.177656 2.7753906 24.472656 C 3.2303906 26.368656 4.8089219 27.782219 6.7949219 28.074219 C 9.8489219 28.523219 12.924 28.748047 16 28.748047 C 19.076 28.748047 22.151078 28.523219 25.205078 28.074219 C 27.190078 27.782219 28.769609 26.368656 29.224609 24.472656 C 30.254609 20.177656 30.254609 15.822344 29.224609 11.527344 C 28.769609 9.6313438 27.191078 8.2177812 25.205078 7.9257812 C 24.242078 7.7837812 23.277547 7.6731719 22.310547 7.5761719 C 21.615547 4.9191719 19.046 3 16 3 z M 16 5 C 17.838 5 19.410422 5.9745312 20.107422 7.3945312 C 17.371422 7.2165313 14.628578 7.2165313 11.892578 7.3945312 C 12.589578 5.9745313 14.161 5 16 5 z M 16 9.2539062 C 18.979 9.2539062 21.957062 9.4702969 24.914062 9.9042969 C 25.870062 10.045297 26.685938 10.644984 27.085938 11.458984 C 27.257938 11.808984 27.243406 12.232078 27.066406 12.580078 C 25.715406 15.245078 23.218094 17.339703 20.121094 18.345703 C 20.288094 19.466703 20.060641 20.596453 19.431641 21.689453 C 19.319641 21.884453 19.1455 22.035141 18.9375 22.119141 C 17.9625 22.509141 16.981 22.703125 16 22.703125 C 15.019 22.703125 14.0375 22.508141 13.0625 22.119141 C 12.8545 22.036141 12.680359 21.884453 12.568359 21.689453 C 11.940359 20.599453 11.711953 19.470562 11.876953 18.351562 C 8.7869531 17.346563 6.2875938 15.246172 4.9335938 12.576172 C 4.7565938 12.227172 4.7430156 11.804125 4.9160156 11.453125 C 5.3170156 10.641125 6.1319375 10.044297 7.0859375 9.9042969 C 10.043937 9.4692969 13.021 9.2539062 16 9.2539062 z M 16 17.119141 A 2.567 1.934 0 1 0 16 20.986328 A 2.567 1.934 0 1 0 16 17.119141 z"/></svg>