<svg xmlns="http://www.w3.org/2000/svg"  viewBox="0 0 32 32" width="28px" height="28px"><path d="M 16.003906 4.0058594 C 13.080156 4.0058594 10.155 4.3490625 7.25 5.0390625 C 6.16 5.2990625 5.2990625 6.16 5.0390625 7.25 C 3.6590625 13.06 3.6590625 18.94 5.0390625 24.75 C 5.2990625 25.84 6.16 26.710938 7.25 26.960938 C 10.15 27.650938 13.08 28 16 28 C 18.92 28 21.85 27.650938 24.75 26.960938 C 25.84 26.700937 26.700937 25.84 26.960938 24.75 C 28.340937 18.94 28.340937 13.06 26.960938 7.25 C 26.710938 6.16 25.84 5.2990625 24.75 5.0390625 C 21.85 4.3490625 18.927656 4.0058594 16.003906 4.0058594 z M 10 11.060547 L 14 11.060547 C 14.3 11.060547 14.58 11.199688 14.75 11.429688 C 15.31 12.179688 16.079687 13.100547 16.929688 14.060547 C 17.759687 13.230547 18.53 12.359922 19.25 11.419922 C 19.57 11.009922 20.170078 10.94 20.580078 11.25 C 20.990078 11.57 21.06 12.170078 20.75 12.580078 C 19.96 13.590078 19.120938 14.539219 18.210938 15.449219 C 19.710938 17.029219 21.310469 18.499453 22.480469 19.189453 C 22.850469 19.409453 23.020156 19.84 22.910156 20.25 C 22.800156 20.66 22.42 20.939453 22 20.939453 L 17 20.939453 C 16.77 20.939453 16.549141 20.859219 16.369141 20.699219 C 15.579141 20.009219 14.929375 19.379297 14.359375 18.779297 C 13.529375 19.399297 12.619531 20.049297 11.519531 20.779297 C 11.359531 20.889297 11.18 20.939453 11 20.939453 C 10.7 20.939453 10.400703 20.799531 10.220703 20.519531 C 9.9307031 20.089531 10.040469 19.510703 10.480469 19.220703 C 11.490469 18.540703 12.339609 17.950859 13.099609 17.380859 C 12.519609 16.690859 11.980625 16.000234 11.390625 15.240234 C 10.780625 14.460234 10.109297 13.609609 9.2792969 12.599609 C 9.0392969 12.319609 8.9903906 11.929609 9.1503906 11.599609 C 9.3003906 11.269609 9.63 11.060547 10 11.060547 z M 11.980469 12.939453 C 12.300469 13.339453 12.589141 13.720078 12.869141 14.080078 C 14.219141 15.810078 15.299375 17.200547 17.359375 19.060547 L 19.220703 19.060547 C 17.090703 17.170547 14.789297 14.549453 13.529297 12.939453 L 11.980469 12.939453 z"/></svg>